<?xml version="1.0" encoding="utf-8"?>
<!-- Generator: Adobe Illustrator 25.0.1, SVG Export Plug-In . SVG Version: 6.00 Build 0)  -->
<svg version="1.1" id="Layer_1" xmlns="http://www.w3.org/2000/svg" xmlns:xlink="http://www.w3.org/1999/xlink" x="0px" y="0px"
	 viewBox="0 0 25 25" style="enable-background:new 0 0 25 25;" xml:space="preserve">
<style type="text/css">
	.st0{fill-rule:evenodd;clip-rule:evenodd;fill:#FFFFFF;}
</style>
<path class="st0" d="M9.8,0.3C6.3,1,3,3.6,1.4,6.8c-1,2-1.4,4-1.4,6C0,12.9,0,13,0,13c0,0.4,0.1,0.8,0.1,1c0.2,1.2,0.5,2.4,1,3.6
	l0.5,1.2l-0.8,2.5c-1.3,3.9-1.1,4.2,2.9,2.9l2.5-0.8l1.2,0.5c3.5,1.6,7.3,1.5,10.8-0.3c3.2-1.6,5.9-5,6.5-8.3c0-0.1,0.1-0.3,0.1-0.4
	c0.4-2.1,0.1-4.1,0-4.8l0,0c0-0.1-0.1-0.2-0.1-0.3c-0.1-0.7-0.6-2-1.1-2.9C21.2,1.8,15.4-0.9,9.8,0.3z M10.2,2.2
	C7.3,2.9,4.5,5.1,3.1,7.8c-1.5,3-1.5,6-0.1,9.2l0.7,1.6l-0.6,1.9c-0.3,1-0.6,1.9-0.6,1.9c0,0,0.9-0.2,1.9-0.6l1.9-0.6L8,22
	c3.1,1.4,6.2,1.4,9.2-0.1c3-1.5,5.2-4.5,5.7-7.9C24,6.8,17.4,0.7,10.2,2.2z M6.8,11.7c-0.7,0.8-0.2,2,0.9,2c1,0,1.5-1.4,0.8-2
	C8,11.2,7.2,11.2,6.8,11.7z M11.7,11.7c-0.7,0.8-0.2,2,0.9,2c1,0,1.5-1.4,0.8-2C12.9,11.2,12.1,11.2,11.7,11.7z M16.5,11.7
	c-0.7,0.8-0.2,2,0.9,2c1,0,1.5-1.4,0.8-2C17.7,11.2,16.9,11.2,16.5,11.7z"/>
</svg>
