<?xml version="1.0" encoding="utf-8"?>
<!-- Generator: Adobe Illustrator 25.0.1, SVG Export Plug-In . SVG Version: 6.00 Build 0)  -->
<svg version="1.1" id="Layer_1" xmlns="http://www.w3.org/2000/svg" xmlns:xlink="http://www.w3.org/1999/xlink" x="0px" y="0px"
	 viewBox="0 0 24 22" style="enable-background:new 0 0 24 22;" xml:space="preserve">
<style type="text/css">
	.st0{fill:none;stroke:#FFFFFF;stroke-width:1.836;}
	.st1{fill:#FFFFFF;}
</style>
<path class="st0" d="M22.1,11c0,5.5-4.7,10.1-10.5,10.1C5.8,21.1,1.1,16.5,1.1,11c0-5.5,4.7-10.1,10.5-10.1
	C17.4,0.9,22.1,5.5,22.1,11z"/>
<path class="st1" d="M7.8,7.8c0-0.2,0.1-0.4,0.2-0.7c0.1-0.3,0.3-0.7,0.6-1c0.3-0.4,0.7-0.7,1.2-0.9c0.5-0.3,1.1-0.4,1.8-0.4
	c0.6,0,1.1,0.1,1.6,0.3c0.4,0.2,0.8,0.4,1.1,0.7c0.3,0.3,0.5,0.6,0.6,1c0.1,0.4,0.2,0.7,0.2,1.1c0,0.6-0.1,1-0.4,1.5
	c-0.3,0.4-0.7,0.9-1.2,1.4c-0.3,0.3-0.6,0.6-0.8,0.8c-0.2,0.2-0.3,0.4-0.4,0.5c-0.1,0.2-0.2,0.3-0.2,0.5c0,0.2-0.1,0.4-0.1,0.7
	c0,0,0,0.1,0,0.2c0,0.1,0,0.2-0.1,0.2c0,0.1-0.1,0.1-0.2,0.2c-0.1,0.1-0.2,0.1-0.3,0.1c-0.2,0-0.3,0-0.4-0.1
	c-0.1-0.1-0.2-0.2-0.2-0.3c0-0.1-0.1-0.2-0.1-0.3c0-0.1,0-0.2,0-0.2c0-0.3,0-0.6,0.1-0.9c0.1-0.3,0.2-0.5,0.3-0.7
	c0.1-0.2,0.3-0.5,0.5-0.7c0.2-0.2,0.4-0.4,0.7-0.7c0.2-0.2,0.4-0.4,0.6-0.6C13,9.3,13.1,9.2,13.2,9c0.1-0.2,0.2-0.3,0.3-0.5
	c0.1-0.2,0.1-0.4,0.1-0.6c0-0.3,0-0.5-0.1-0.7c-0.1-0.2-0.2-0.5-0.4-0.6c-0.2-0.2-0.4-0.3-0.7-0.4C12.1,6,11.8,6,11.5,6
	c-0.4,0-0.7,0.1-1,0.2c-0.3,0.1-0.5,0.3-0.6,0.5C9.7,6.9,9.6,7.1,9.5,7.3C9.4,7.5,9.4,7.7,9.3,7.8C9.3,8,9.2,8.1,9.1,8.3
	C9,8.5,8.9,8.5,8.6,8.5c-0.2,0-0.3-0.1-0.5-0.2C7.9,8.2,7.8,8,7.8,7.8z M11.4,15.1c0.3,0,0.5,0.1,0.6,0.3c0.2,0.2,0.3,0.4,0.3,0.6
	c0,0.3-0.1,0.5-0.3,0.6c-0.2,0.2-0.4,0.3-0.6,0.3s-0.5-0.1-0.6-0.3c-0.2-0.2-0.3-0.4-0.3-0.6c0-0.3,0.1-0.5,0.3-0.6
	C11,15.2,11.2,15.1,11.4,15.1z"/>
</svg>
