<svg id="Layer_1" data-name="Layer 1" xmlns="http://www.w3.org/2000/svg" viewBox="0 0 319.35 336.03"><title>purchase</title><path d="M100,76c7.21-37.39,38.5-60,71-60,32.87,0,63.8,22.85,71,60,1.33,0,2.77,0,4.22,0,8.73.17,17.57-.43,26.19.7,15.77,2.07,27.3,14.18,29.8,29.93Q316,193.77,329.83,280.88c5.32,33.66-14.9,63.33-47.75,70A62.43,62.43,0,0,1,269.79,352q-98.81.1-197.62,0c-35.66,0-62.73-28.15-60.74-63.65.6-10.8,3-21.51,4.68-32.23Q24.14,205,32.25,154c2.53-16,4.9-32.09,7.64-48.09A35.62,35.62,0,0,1,75.13,76C83.35,75.93,91.58,76,100,76Zm70.8,252c33.24,0,66.48.1,99.72,0,22.82-.1,39.27-19.59,35.76-42q-5.36-34.22-10.77-68.43-8.36-52.91-16.73-105.78c-1.3-8.14-5.62-11.7-13.81-11.7Q171,100,77.11,100c-8.23,0-12.56,3.53-13.87,11.63-2.9,17.86-5.65,35.75-8.48,53.63C48.85,202.62,42.86,240,37.09,277.34c-1,6.49-2.16,13.28-1.34,19.68,2.39,18.52,17.43,30.93,36.42,31Q121.46,328.07,170.76,328ZM216.81,75.83C214.38,57,192.73,40.09,171.2,40s-43.37,16.73-46,35.82Z" transform="translate(-11.33 -15.98)"/><path d="M170.92,208c-39.06,0-71.6-32-71.92-70.63-.06-7.71,4.7-13.17,11.64-13.34,7.14-.17,12.15,5.12,12.36,13a48,48,0,0,0,96-.13c.21-7.74,5.1-13,12.1-12.91s12,5.58,11.89,13.48C242.56,176.15,210,208,170.92,208Z" transform="translate(-11.33 -15.98)"/></svg>