<?xml version="1.0" encoding="utf-8"?>
<!-- Generator: Adobe Illustrator 23.0.1, SVG Export Plug-In . SVG Version: 6.00 Build 0)  -->
<svg version="1.1" id="Layer_1" xmlns="http://www.w3.org/2000/svg" xmlns:xlink="http://www.w3.org/1999/xlink" x="0px" y="0px"
	 viewBox="0 0 26 25" style="enable-background:new 0 0 26 25;" xml:space="preserve">
<style type="text/css">
	.st0{fill:#585858;}
</style>
<path class="st0" d="M10.16,1.5c0.4,0,0.81,0,1.21,0c0.06,0.01,0.11,0.03,0.17,0.04c0.51,0.09,1.03,0.14,1.52,0.27
	c5.75,1.47,8.64,7.99,5.87,13.24c-0.25,0.48-0.56,0.93-0.88,1.44c0.05,0.04,0.13,0.08,0.19,0.15c1.87,1.87,3.74,3.74,5.61,5.6
	c0.26,0.26,0.51,0.52,0.63,0.88c0,0.15,0,0.3,0,0.45c-0.1,0.28-0.22,0.54-0.47,0.72c-0.49,0.35-1.09,0.29-1.56-0.18
	c-1.95-1.95-3.91-3.91-5.86-5.86c-0.06-0.06-0.09-0.14-0.13-0.21c-0.14,0.1-0.22,0.16-0.3,0.22c-2.49,1.74-5.21,2.24-8.11,1.36
	c-4.6-1.39-7.28-5.89-6.41-10.61C2.3,5.43,5.19,2.48,8.75,1.74C9.23,1.62,9.7,1.57,10.16,1.5z M17.71,10.77
	c0.01-3.83-3.11-6.96-6.95-6.97C6.93,3.79,3.8,6.91,3.78,10.74c-0.01,3.82,3.11,6.96,6.95,6.97C14.56,17.73,17.7,14.61,17.71,10.77z
	"/>
</svg>
