<?xml version="1.0" encoding="utf-8"?>
<!-- Generator: Adobe Illustrator 23.0.1, SVG Export Plug-In . SVG Version: 6.00 Build 0)  -->
<svg version="1.1" id="Layer_1" xmlns="http://www.w3.org/2000/svg" xmlns:xlink="http://www.w3.org/1999/xlink" x="0px" y="0px"
	 viewBox="0 0 23 22" style="enable-background:new 0 0 23 22;" xml:space="preserve">
<style type="text/css">
	.st0{fill:#585858;}
</style>
<g>
	<path class="st0" d="M20.33,4.28H2.67c-0.57,0-1.03-0.46-1.03-1.03V2.58c0-0.57,0.46-1.03,1.03-1.03h17.67
		c0.57,0,1.03,0.46,1.03,1.03v0.67C21.36,3.82,20.9,4.28,20.33,4.28z"/>
	<path class="st0" d="M20.33,9.67H2.67c-0.57,0-1.03-0.46-1.03-1.03V7.97c0-0.57,0.46-1.03,1.03-1.03h17.67
		c0.57,0,1.03,0.46,1.03,1.03v0.67C21.36,9.21,20.9,9.67,20.33,9.67z"/>
	<path class="st0" d="M20.33,15.06H2.67c-0.57,0-1.03-0.46-1.03-1.03v-0.67c0-0.57,0.46-1.03,1.03-1.03h17.67
		c0.57,0,1.03,0.46,1.03,1.03v0.67C21.36,14.6,20.9,15.06,20.33,15.06z"/>
	<path class="st0" d="M20.33,20.44H2.67c-0.57,0-1.03-0.46-1.03-1.03v-0.67c0-0.57,0.46-1.03,1.03-1.03h17.67
		c0.57,0,1.03,0.46,1.03,1.03v0.67C21.36,19.98,20.9,20.44,20.33,20.44z"/>
</g>
</svg>
