<?xml version="1.0" encoding="utf-8"?>
<!-- Generator: Adobe Illustrator 25.0.1, SVG Export Plug-In . SVG Version: 6.00 Build 0)  -->
<svg version="1.1" id="Layer_1" xmlns="http://www.w3.org/2000/svg" xmlns:xlink="http://www.w3.org/1999/xlink" x="0px" y="0px"
	 viewBox="0 0 25 25" style="enable-background:new 0 0 25 25;" xml:space="preserve">
<g>
	<path d="M12.51,0.2c0.95-0.08,1.66,0.39,2.2,1.07c1,1.25,2.2,1.76,3.86,1.7c2.48-0.1,3.53,0.95,3.43,3.43
		c-0.07,1.66,0.5,2.79,1.69,3.87c1.57,1.43,1.58,2.94,0.01,4.37c-1.18,1.08-1.77,2.19-1.7,3.86c0.11,2.49-0.94,3.54-3.41,3.45
		c-1.65-0.06-2.8,0.48-3.88,1.67c-1.47,1.62-2.96,1.61-4.44-0.03c-1.06-1.17-2.17-1.7-3.79-1.64C3.94,22.03,2.91,21,3,18.46
		c0.06-1.61-0.47-2.73-1.64-3.79c-1.63-1.48-1.64-2.97-0.01-4.43C2.55,9.16,3.06,8,3.01,6.36c-0.08-2.46,0.96-3.48,3.46-3.4
		c1.61,0.06,2.8-0.39,3.78-1.64C10.81,0.61,11.53,0.1,12.51,0.2z M22.94,12.55c-0.05-0.63-0.46-0.98-0.85-1.28
		c-1.5-1.18-2.14-2.65-1.96-4.6C20.28,4.95,20,4.7,18.22,4.82c-1.8,0.13-3.18-0.39-4.38-1.78c-1.23-1.43-1.41-1.4-2.69-0.02
		C10.1,4.18,9,4.93,7.3,4.83C4.85,4.69,4.78,4.8,4.87,7.27c0.05,1.44-0.32,2.59-1.45,3.48c-0.24,0.19-0.44,0.43-0.65,0.64
		c-0.94,0.96-1,1.26,0.04,2.13c1.56,1.29,2.27,2.81,2.06,4.87c-0.15,1.51,0.19,1.83,1.75,1.69c1.97-0.18,3.44,0.45,4.71,1.96
		c1,1.19,1.31,1.18,2.32,0.01c1.21-1.39,2.56-2.14,4.5-1.98c1.88,0.16,2.1-0.09,1.97-1.98c-0.12-1.77,0.35-3.18,1.77-4.26
		c0.27-0.2,0.49-0.46,0.71-0.72C22.76,12.93,22.85,12.71,22.94,12.55z"/>
	<path d="M16.62,10.26c0.02,0.4-0.19,0.66-0.43,0.91c-1.29,1.29-2.59,2.58-3.87,3.88c-0.63,0.64-1.22,0.62-1.83-0.01
		c-0.56-0.58-1.15-1.14-1.71-1.73c-0.42-0.43-0.61-0.94-0.15-1.44c0.46-0.49,0.95-0.3,1.44,0.06c0.52,0.37,0.79,1.32,1.54,1.08
		c0.55-0.18,0.95-0.83,1.41-1.28c0.7-0.69,1.39-1.39,2.09-2.07c0.29-0.28,0.64-0.39,1.02-0.19C16.45,9.64,16.63,9.91,16.62,10.26z"
		/>
</g>
</svg>
