<?xml version="1.0" encoding="utf-8"?>
<!-- Generator: Adobe Illustrator 25.0.1, SVG Export Plug-In . SVG Version: 6.00 Build 0)  -->
<svg version="1.1" id="Layer_1" xmlns="http://www.w3.org/2000/svg" xmlns:xlink="http://www.w3.org/1999/xlink" x="0px" y="0px"
	 viewBox="0 0 70.87 70.87" style="enable-background:new 0 0 70.87 70.87;" xml:space="preserve">
<g>
	<path d="M35.44,1.42c20.1,0.01,32.45,21.18,22.6,38.88c-1.09,1.96-1.22,3.38,0.01,5.32c2.54,4,4.81,8.18,7.15,12.3
		c0.51,0.9,1.44,1.87,0.58,2.93c-0.79,0.97-1.98,0.56-3.03,0.36c-1.85-0.34-3.73-0.59-5.51-1.13c-2.05-0.62-2.97,0.13-3.48,2.06
		c-0.48,1.81-1.17,3.57-1.8,5.34c-0.33,0.92-0.56,1.92-1.86,1.98c-1.2,0.05-1.75-0.74-2.25-1.61c-2.29-3.95-4.64-7.87-6.81-11.88
		c-1-1.85-2.21-2.51-4.4-2.7c-3.92-0.33-6.3,0.91-7.92,4.57c-1.52,3.42-3.67,6.55-5.56,9.8c-0.54,0.93-1.07,1.89-2.41,1.81
		c-1.45-0.09-1.58-1.29-1.93-2.25c-0.65-1.76-1.28-3.54-1.79-5.34c-0.48-1.71-1.37-2.32-3.16-1.83c-1.98,0.53-4.02,0.88-6.04,1.24
		c-0.95,0.17-2.05,0.48-2.76-0.43c-0.77-0.98,0.01-1.87,0.48-2.7c2.49-4.35,4.93-8.73,7.54-13.01c0.96-1.58,0.91-2.74-0.02-4.36
		C3.89,24.65,12.51,5.63,30.63,1.74C32.23,1.39,33.84,1.47,35.44,1.42z M58.77,27.33C58.64,14.51,48.14,3.86,35.43,4.09
		c-13.61,0.25-23.41,10.53-23.25,23.5c0.16,13.76,10.81,23.07,23.38,23.1C48.45,50.71,58.89,39.99,58.77,27.33z M49.55,65.16
		c0.4-0.83,0.56-1.14,0.69-1.46c0.87-2.14,0.9-4.91,2.64-6.32c2.03-1.65,4.59,0.1,6.92,0.39c1.41,0.18,1.92-0.28,1.16-1.6
		c-1.82-3.17-3.69-6.32-5.49-9.5c-0.59-1.05-1.15-1.19-2.05-0.34c-2.75,2.63-5.96,4.53-9.55,5.76c-1.22,0.42-1.21,1.09-0.67,2.03
		C45.25,57.65,47.28,61.2,49.55,65.16z M21.23,65.3c2.35-4.1,4.42-7.71,6.49-11.33c0.49-0.85,0.44-1.48-0.63-1.85
		c-3.68-1.27-6.95-3.22-9.78-5.9c-0.62-0.59-1.19-0.79-1.71,0.12c-1.92,3.32-3.87,6.63-5.77,9.96c-0.69,1.21-0.12,1.68,1.11,1.46
		c1.49-0.26,2.97-0.62,4.45-0.91c1.85-0.36,3.06,0.21,3.61,2.18C19.56,60.98,20.35,62.85,21.23,65.3z"/>
	<path d="M35.36,46.92C24.35,46.92,15.9,38.4,15.9,27.32c0.01-11.01,8.52-19.46,19.6-19.45c11.01,0.01,19.46,8.52,19.45,19.6
		C54.95,38.48,46.43,46.93,35.36,46.92z M52.31,27.39c-0.01-9.16-7.52-16.72-16.76-16.89c-9.06-0.17-17.07,7.76-17.08,16.9
		c0,9.13,8.02,17.07,17.08,16.89C44.78,44.11,52.33,36.5,52.31,27.39z"/>
	<path d="M27.74,32.06c0.84-2.32-1.14-3.9-2.51-5.73c-1.94-2.6-1.65-3.81,1.52-4.46c2.96-0.6,4.84-2.12,6.35-4.67
		c1.64-2.76,3.06-2.75,4.69,0.06c1.51,2.6,3.47,4,6.39,4.62c3,0.64,3.52,2.12,1.5,4.26c-2.14,2.28-2.77,4.75-2.61,7.77
		c0.17,3.21-0.79,3.78-3.91,2.61c-2.08-0.78-3.92-1.62-6.35-0.51C28.26,38.1,27.7,37.58,27.74,32.06z M42.94,24.94
		c-0.11-0.71-0.75-0.76-1.22-0.82c-2.51-0.34-4.25-1.66-5.35-3.93c-0.56-1.16-1.36-1.13-1.91,0.02c-1.09,2.29-2.84,3.56-5.35,3.91
		c-1.12,0.16-1.68,0.75-0.64,1.76c1.72,1.65,2.55,3.59,2.24,6.02c-0.17,1.34,0.53,1.92,1.77,1.27c2-1.05,3.92-0.88,5.9,0.01
		c0.63,0.28,1.71,0.57,1.65-0.5c-0.16-2.86,0.56-5.28,2.7-7.23C42.86,25.33,42.88,25.11,42.94,24.94z"/>
</g>
</svg>
