<?xml version="1.0" encoding="utf-8"?>
<!-- Generator: Adobe Illustrator 25.0.1, SVG Export Plug-In . SVG Version: 6.00 Build 0)  -->
<svg version="1.1" id="Layer_1" xmlns="http://www.w3.org/2000/svg" xmlns:xlink="http://www.w3.org/1999/xlink" x="0px" y="0px"
	 viewBox="0 0 25 25" style="enable-background:new 0 0 25 25;" xml:space="preserve">
<style type="text/css">
	.st0{fill:none;stroke:#000000;stroke-miterlimit:10;}
</style>
<g>
	<path class="st0" d="M9.66,11.62H2.89c-1.1,0-2-0.9-2-2V2.86c0-1.1,0.9-2,2-2h6.76c1.1,0,2,0.9,2,2v6.76
		C11.66,10.72,10.76,11.62,9.66,11.62z"/>
	<path class="st0" d="M22.11,11.62h-6.76c-1.1,0-2-0.9-2-2V2.86c0-1.1,0.9-2,2-2h6.76c1.1,0,2,0.9,2,2v6.76
		C24.11,10.72,23.21,11.62,22.11,11.62z"/>
	<path class="st0" d="M9.66,24.14H2.89c-1.1,0-2-0.9-2-2v-6.76c0-1.1,0.9-2,2-2h6.76c1.1,0,2,0.9,2,2v6.76
		C11.66,23.25,10.76,24.14,9.66,24.14z"/>
	<path class="st0" d="M22.11,24.14h-6.76c-1.1,0-2-0.9-2-2v-6.76c0-1.1,0.9-2,2-2h6.76c1.1,0,2,0.9,2,2v6.76
		C24.11,23.25,23.21,24.14,22.11,24.14z"/>
</g>
</svg>
