<?xml version="1.0" encoding="utf-8"?>
<!-- Generator: Adobe Illustrator 25.0.1, SVG Export Plug-In . SVG Version: 6.00 Build 0)  -->
<svg version="1.1" id="Layer_1" xmlns="http://www.w3.org/2000/svg" xmlns:xlink="http://www.w3.org/1999/xlink" x="0px" y="0px"
	 viewBox="0 0 25 25" style="enable-background:new 0 0 25 25;" xml:space="preserve">
<g>
	<path d="M24.66,21.38c-0.65,0.08-1.19,0.14-1.71,0.21c-1.37,2.85-4.16,2.47-5.24-0.01c-2.79,0-5.6,0-8.4,0
		c-1.75,2.73-3.66,2.74-5.32-0.1c-1.03,0-2.16,0-3.37,0c-0.04-0.54-0.09-0.91-0.09-1.28c-0.01-3.64-0.01-7.28,0-10.92
		c0-1.38,0.02-1.4,1.47-1.4c1.54,0,3.08,0,4.63,0c0.42,0,0.83,0,1.25,0c0-1.11-0.18-2.12,0.03-3.04c0.63-2.68,3.32-4.21,5.93-3.51
		c2.66,0.71,4.16,3.28,3.49,5.97c-0.2,0.81-0.71,1.58-0.29,2.59c1.15,0,2.34,0.04,3.53-0.01c0.74-0.03,1.18,0.21,1.5,0.89
		c0.72,1.55,1.51,3.07,2.27,4.6c0.13,0.27,0.3,0.55,0.31,0.83C24.68,17.88,24.66,19.59,24.66,21.38z M9.15,20.53
		c2.31,0,4.51,0,6.74,0c0-3.32,0-6.54,0-9.97c-0.88,1.1-1.63,2.08-2.42,3.01c-0.81,0.96-0.97,0.98-1.75-0.01
		c-1.19-1.51-2.3-3.07-3.5-4.68c-2.1,0-4.35,0-6.63,0c0,3.93,0,7.8,0,11.68c0.89,0,1.69,0,2.51,0c0.46-1.22,1.21-2.01,2.57-1.99
		C7.97,18.59,8.68,19.36,9.15,20.53z M12.7,13.35c1.16-1.75,2.21-3.24,3.16-4.8c0.54-0.88,0.81-1.89,0.69-2.94
		c-0.25-2.34-2.42-3.91-4.78-3.48C9.61,2.52,8.17,4.75,8.74,6.96C9.36,9.39,10.9,11.26,12.7,13.35z M23.41,15.62
		c-0.76-1.57-1.44-2.98-2.14-4.38c-0.09-0.17-0.29-0.4-0.45-0.4c-1.3-0.06-2.6-0.1-3.84,0.01c0,1.7,0,3.21,0,4.77
		C19.12,15.62,21.15,15.62,23.41,15.62z M23.64,16.66c-2.25,0-4.47,0-6.7,0c0,1.35,0,2.61,0,3.83c0.73,0.31,0.87-0.16,1.11-0.58
		c0.64-1.12,1.65-1.57,2.8-1.29c0.79,0.19,1.39,0.68,1.7,1.43c0.23,0.56,0.54,0.68,1.09,0.45C23.64,19.22,23.64,17.99,23.64,16.66z
		 M8.24,21.07c0.01-0.91-0.72-1.64-1.61-1.62c-0.85,0.01-1.52,0.68-1.55,1.54c-0.04,0.92,0.64,1.66,1.54,1.69
		C7.5,22.7,8.23,21.98,8.24,21.07z M21.87,21.09c0.02-0.91-0.7-1.65-1.59-1.64c-0.85,0-1.53,0.66-1.57,1.52
		c-0.04,0.92,0.62,1.67,1.52,1.71C21.11,22.71,21.85,22,21.87,21.09z"/>
	<path d="M12.61,8.6c-1.48,0.01-2.6-1.1-2.6-2.57c0.01-1.43,1.2-2.61,2.62-2.58c1.39,0.03,2.51,1.15,2.53,2.54
		C15.19,7.45,14.08,8.59,12.61,8.6z M14.27,6.07c0.02-0.9-0.68-1.64-1.6-1.68c-0.97-0.04-1.76,0.69-1.77,1.64
		c-0.01,0.87,0.73,1.66,1.6,1.72C13.41,7.8,14.26,7,14.27,6.07z"/>
</g>
</svg>
