<?xml version="1.0" encoding="utf-8"?>
<!-- Generator: Adobe Illustrator 25.0.1, SVG Export Plug-In . SVG Version: 6.00 Build 0)  -->
<svg version="1.1" id="Layer_1" xmlns="http://www.w3.org/2000/svg" xmlns:xlink="http://www.w3.org/1999/xlink" x="0px" y="0px"
	 viewBox="0 0 25 25" style="enable-background:new 0 0 25 25;" xml:space="preserve">
<style type="text/css">
	.st0{fill:none;stroke:#000000;stroke-width:1.5;stroke-linecap:round;stroke-miterlimit:10;}
</style>
<g>
	<path d="M12.5,2.22c5.67,0,10.28,4.61,10.28,10.28S18.17,22.78,12.5,22.78S2.22,18.17,2.22,12.5S6.83,2.22,12.5,2.22 M12.5,0.72
		C6,0.72,0.72,6,0.72,12.5S6,24.28,12.5,24.28S24.28,19,24.28,12.5S19,0.72,12.5,0.72L12.5,0.72z"/>
</g>
<line class="st0" x1="12.5" y1="6.11" x2="12.5" y2="16.95"/>
<path class="st0" d="M16.92,14.3l-3.91,3.52c-0.32,0.16-0.69,0.16-1.01,0L8.08,14.3"/>
</svg>
