<?xml version="1.0" encoding="utf-8"?>
<!-- Generator: Adobe Illustrator 25.0.1, SVG Export Plug-In . SVG Version: 6.00 Build 0)  -->
<svg version="1.1" id="Layer_1" xmlns="http://www.w3.org/2000/svg" xmlns:xlink="http://www.w3.org/1999/xlink" x="0px" y="0px"
	 viewBox="0 0 25 25" style="enable-background:new 0 0 25 25;" xml:space="preserve">
<g>
	<path d="M7.01,5.3c0.18-0.5,0.3-0.9,0.47-1.3c0.49-1.18,1.39-1.82,2.66-1.85c1.61-0.04,3.22-0.03,4.83,0
		c1.36,0.02,2.3,0.68,2.78,1.96c0.14,0.37,0.27,0.74,0.43,1.19c1.1,0,2.21-0.02,3.33,0.01c1.45,0.03,2.53,0.9,2.85,2.27
		c0.07,0.28,0.07,0.59,0.07,0.88c0,3.65-0.04,7.3,0.02,10.95c0.04,2.16-1.59,3.29-3.24,3.28c-5.75-0.05-11.51-0.02-17.27-0.02
		c-1.64,0-2.73-0.78-3.1-2.2c-0.08-0.31-0.09-0.65-0.09-0.98c-0.01-3.68,0.03-7.37-0.02-11.05C0.71,6.61,2.11,5.21,3.89,5.29
		C4.91,5.34,5.92,5.3,7.01,5.3z M12.55,21.09c2.89,0,5.78,0.01,8.67,0c1.16,0,1.62-0.46,1.62-1.61c0.01-3.65,0.01-7.29,0-10.94
		c0-1.21-0.45-1.65-1.67-1.66c-0.99-0.01-1.97,0-2.96,0c-1.17,0-1.2-0.02-1.59-1.17c-0.12-0.34-0.21-0.69-0.34-1.03
		c-0.23-0.61-0.67-0.96-1.35-0.95c-1.58,0-3.15,0-4.73,0c-0.68,0-1.1,0.36-1.33,0.97C8.75,5.07,8.64,5.45,8.51,5.82
		C8.15,6.85,8.12,6.88,7.04,6.88c-1.05,0-2.1-0.01-3.15,0C2.8,6.9,2.36,7.36,2.33,8.46c0,0.1,0,0.2,0,0.3c0,3.48,0,6.97,0,10.45
		c0,0.2-0.01,0.4,0.01,0.59C2.4,20.55,2.85,21,3.58,21.08c0.23,0.02,0.46,0.01,0.69,0.01C7.03,21.09,9.79,21.09,12.55,21.09z"/>
	<path d="M6.67,13.51c0.03-3.23,2.71-5.86,5.95-5.84c3.28,0.02,5.92,2.7,5.89,6c-0.03,3.26-2.75,5.9-6.05,5.84
		C9.24,19.45,6.64,16.76,6.67,13.51z M8.26,13.52c-0.03,2.42,1.92,4.4,4.34,4.4c2.31,0.01,4.29-1.91,4.33-4.22
		c0.04-2.43-1.89-4.43-4.29-4.45C10.27,9.23,8.28,11.17,8.26,13.52z"/>
	<path d="M20.5,8.47c0.39,0.01,0.74,0.36,0.76,0.75c0.02,0.42-0.37,0.82-0.8,0.81c-0.39-0.01-0.74-0.36-0.76-0.75
		C19.69,8.85,20.08,8.46,20.5,8.47z"/>
</g>
</svg>
