<?xml version="1.0" encoding="utf-8"?>
<!-- Generator: Adobe Illustrator 25.0.1, SVG Export Plug-In . SVG Version: 6.00 Build 0)  -->
<svg version="1.1" id="Layer_1" xmlns="http://www.w3.org/2000/svg" xmlns:xlink="http://www.w3.org/1999/xlink" x="0px" y="0px"
	 viewBox="0 0 25 25" style="enable-background:new 0 0 25 25;" xml:space="preserve">
<g>
	<path d="M12.8,24.31c-1.69,0-3.02-0.02-4.35,0.01c-0.88,0.02-1.73-0.11-2.59-0.24c-1.69-0.26-3.41-2.2-3.44-4
		c-0.07-3.37,0.97-6.32,2.92-9.01C6.34,9.7,7.47,8.49,8.78,7.43C9.33,6.98,9.36,6.8,8.96,6.18C8.3,5.17,7.61,4.17,6.95,3.16
		C6.47,2.43,6.5,2.23,7.15,1.67c1.2-1.02,2.57-1.11,4.02-0.7c0.21,0.06,0.42,0.11,0.62,0.2c0.8,0.35,1.57,0.29,2.33-0.09
		c0.72-0.36,1.48-0.44,2.26-0.38c0.28,0.02,0.56,0.06,0.8,0.22c0.93,0.62,1.1,0.91,0.56,1.89c-0.56,1.03-1.14,2.06-1.71,3.09
		c-0.47,0.84-0.41,1.03,0.31,1.64c3.18,2.68,5.4,5.94,6.1,10.12c0.17,1.01,0.17,2.05,0.03,3.06c-0.23,1.65-1.93,3.16-3.63,3.41
		C16.72,24.45,14.58,24.22,12.8,24.31z M12.42,23.2c1.86,0,3.72-0.05,5.58,0.01c2.07,0.06,3.73-1.77,3.62-3.66
		c-0.04-0.62-0.07-1.23-0.18-1.85c-0.73-4.08-2.93-7.23-6.14-9.75c-0.35-0.28-0.76-0.4-1.21-0.39c-0.99,0.01-1.99,0.03-2.98-0.01
		c-0.66-0.02-1.2,0.2-1.71,0.59c-2.09,1.64-3.63,3.7-4.8,6.06c-0.82,1.67-1.13,3.45-1.24,5.3c-0.11,1.94,1.56,3.78,3.67,3.7
		C8.82,23.15,10.63,23.2,12.42,23.2z M12.45,6.46c0.43,0,0.87-0.02,1.3,0.01c0.59,0.04,0.98-0.16,1.26-0.72
		c0.51-1.02,1.09-2.01,1.64-3.01c0.4-0.73,0.2-1.08-0.65-1.1c-0.67-0.02-1.27,0.25-1.87,0.49c-0.79,0.32-1.57,0.31-2.36,0.08
		c-0.3-0.08-0.58-0.22-0.89-0.28c-0.85-0.17-1.72-0.29-2.54,0.12c-0.58,0.29-0.62,0.46-0.28,1C8.4,3.6,8.77,4.14,9.14,4.68
		C10.58,6.76,9.86,6.42,12.45,6.46z"/>
	<path d="M12.59,20.88c-0.17-0.02-0.31-0.1-0.36-0.26c-0.05-0.14-0.09-0.3-0.1-0.45c-0.02-0.52-0.31-0.7-0.79-0.69
		c-0.15,0-0.31-0.01-0.46-0.04c-0.2-0.04-0.35-0.14-0.36-0.36c-0.01-0.21,0.1-0.37,0.29-0.43c0.24-0.06,0.49-0.09,0.73-0.1
		c0.56-0.02,1.12,0.01,1.67-0.04c0.67-0.06,1.01-0.44,1.01-1c0-0.56-0.35-0.91-1.02-0.99c-0.4-0.04-0.8-0.02-1.21-0.03
		c-1.07-0.04-1.83-0.69-2.01-1.71c-0.14-0.82,0.36-1.65,1.29-2.02c0.5-0.2,0.89-0.39,0.88-1.01c-0.01-0.26,0.15-0.49,0.44-0.51
		c0.33-0.02,0.37,0.25,0.43,0.5c0.18,0.77,0.19,0.77,0.91,0.87c0.15,0.02,0.31,0.04,0.45,0.09c0.19,0.06,0.34,0.18,0.35,0.39
		c0,0.27-0.2,0.39-0.42,0.41c-0.49,0.03-0.99,0.03-1.49,0.04c-0.37,0.01-0.75-0.02-1.1,0.13c-0.49,0.2-0.73,0.53-0.7,0.98
		c0.03,0.5,0.33,0.83,0.89,0.9c0.4,0.05,0.81,0.06,1.21,0.03c1.13-0.08,1.97,0.81,2.1,1.71c0.14,0.95-0.44,1.81-1.53,2.14
		c-0.48,0.14-0.65,0.39-0.67,0.85C13.02,20.56,12.94,20.83,12.59,20.88z"/>
</g>
</svg>
