<?xml version="1.0" encoding="utf-8"?>
<!-- Generator: Adobe Illustrator 25.0.1, SVG Export Plug-In . SVG Version: 6.00 Build 0)  -->
<svg version="1.1" id="Layer_1" xmlns="http://www.w3.org/2000/svg" xmlns:xlink="http://www.w3.org/1999/xlink" x="0px" y="0px"
	 viewBox="0 0 25 25" style="enable-background:new 0 0 25 25;" xml:space="preserve">
<style type="text/css">
	.st0{fill:none;stroke:#000000;stroke-miterlimit:10;}
</style>
<path class="st0" d="M13.97,2.45l1.68,5.17c0.21,0.64,0.8,1.07,1.47,1.07h5.44c1.5,0,2.12,1.92,0.91,2.8l-4.4,3.2
	c-0.54,0.39-0.77,1.09-0.56,1.73l1.68,5.17c0.46,1.43-1.17,2.61-2.38,1.73l-4.4-3.2c-0.54-0.39-1.28-0.39-1.82,0l-4.4,3.2
	c-1.21,0.88-2.85-0.3-2.38-1.73l1.68-5.17c0.21-0.64-0.02-1.34-0.56-1.73l-4.4-3.2c-1.21-0.88-0.59-2.8,0.91-2.8h5.44
	c0.67,0,1.27-0.43,1.47-1.07l1.68-5.17C11.49,1.02,13.51,1.02,13.97,2.45z"/>
</svg>
