<?xml version="1.0" encoding="utf-8"?>
<!-- Generator: Adobe Illustrator 25.0.1, SVG Export Plug-In . SVG Version: 6.00 Build 0)  -->
<svg version="1.1" id="Layer_1" xmlns="http://www.w3.org/2000/svg" xmlns:xlink="http://www.w3.org/1999/xlink" x="0px" y="0px"
	 viewBox="0 0 25 25" style="enable-background:new 0 0 25 25;" xml:space="preserve">
<style type="text/css">
	.st0{fill:#FFFFFF;}
</style>
<g>
	<path class="st0" d="M18.16,19.56c1.44,1.48,2.84,2.94,4.28,4.36c0.76,0.75,1.89,0.54,2.03-0.37c0.07-0.46-0.2-1.1-0.53-1.45
		c-1.35-1.44-2.78-2.8-4.16-4.16c4.08-5.7,2.3-12-1.73-15.22C13.81-0.69,7.59-0.35,3.72,3.51c-3.87,3.87-4.21,10.05-0.81,14.33
		C6.06,21.81,12.32,23.71,18.16,19.56z"/>
	<path d="M18.16,19.56c-5.84,4.15-12.09,2.25-15.25-1.71c-3.4-4.28-3.06-10.47,0.81-14.33C7.59-0.35,13.81-0.69,18.05,2.7
		c4.03,3.22,5.8,9.52,1.73,15.22c1.38,1.37,2.81,2.73,4.16,4.16c0.33,0.35,0.6,1,0.53,1.45c-0.14,0.92-1.27,1.12-2.03,0.37
		C20.99,22.49,19.6,21.03,18.16,19.56z M11.4,2.75C6.77,2.73,3,6.42,2.95,11.02c-0.05,4.66,3.67,8.46,8.32,8.52
		c4.6,0.06,8.44-3.76,8.46-8.4C19.74,6.55,15.99,2.77,11.4,2.75z"/>
</g>
</svg>
