<?xml version="1.0" encoding="utf-8"?>
<!-- Generator: Adobe Illustrator 25.0.1, SVG Export Plug-In . SVG Version: 6.00 Build 0)  -->
<svg version="1.1" id="Layer_1" xmlns="http://www.w3.org/2000/svg" xmlns:xlink="http://www.w3.org/1999/xlink" x="0px" y="0px"
	 viewBox="0 0 25 25" style="enable-background:new 0 0 25 25;" xml:space="preserve">
<style type="text/css">
	.st0{fill:#FFFFFF;}
</style>
<g>
	<path class="st0" d="M10.61,17.61c5.17,2.55,9.89,0.55,12.21-2.74c2.52-3.57,2.14-8.58-0.91-11.74c-3.01-3.12-7.93-3.71-11.59-1.38
		c-4.1,2.6-5.25,7.04-3.12,12.57c-0.91,0.86-1.9,1.77-2.87,2.71c-1,0.97-1.99,1.95-2.95,2.95c-1.22,1.27-1.2,2.77-0.01,3.77
		c1.05,0.87,2.35,0.77,3.5-0.36C6.79,21.5,8.66,19.57,10.61,17.61z"/>
	<path d="M10.61,17.61c-1.94,1.96-3.82,3.89-5.73,5.78c-1.15,1.13-2.45,1.24-3.5,0.36c-1.19-1-1.2-2.5,0.01-3.77
		c0.96-1,1.95-1.98,2.95-2.95c0.96-0.94,1.95-1.85,2.87-2.71C5.07,8.79,6.22,4.35,10.32,1.75c3.66-2.32,8.59-1.74,11.59,1.38
		c3.04,3.15,3.43,8.17,0.91,11.74C20.5,18.16,15.78,20.15,10.61,17.61z M23.56,9.58c0.03-3.35-2.07-6.45-5.24-7.72
		c-3.2-1.28-6.67-0.51-9.08,2.02c-2.34,2.46-2.99,6.13-1.45,9.17c0.53,1.04,0.36,1.59-0.42,2.33c-1.74,1.64-3.39,3.37-5.09,5.05
		C1.55,21.17,1,21.93,1.87,22.91c0.66,0.75,1.47,0.63,2.46-0.35c1.73-1.71,3.49-3.4,5.15-5.18c0.72-0.78,1.28-0.83,2.23-0.37
		C17.18,19.64,23.5,15.66,23.56,9.58z"/>
	<path class="st0" d="M23.56,9.58c-0.06,6.07-6.38,10.06-11.85,7.42c-0.95-0.46-1.51-0.41-2.23,0.37c-1.66,1.78-3.42,3.47-5.15,5.18
		c-0.99,0.98-1.8,1.1-2.46,0.35C1,21.93,1.55,21.17,2.29,20.44c1.7-1.68,3.35-3.41,5.09-5.05c0.78-0.73,0.94-1.29,0.42-2.33
		c-1.55-3.04-0.89-6.72,1.45-9.17c2.41-2.53,5.88-3.3,9.08-2.02C21.49,3.13,23.59,6.23,23.56,9.58z M8.72,9.58
		c0.01,3.71,2.92,6.61,6.61,6.57c3.66-0.04,6.5-2.89,6.52-6.53C21.87,5.9,18.99,3,15.29,2.99C11.58,2.98,8.71,5.86,8.72,9.58z"/>
	<path d="M8.72,9.58c-0.01-3.72,2.87-6.6,6.58-6.59c3.7,0.01,6.58,2.92,6.55,6.63c-0.02,3.65-2.86,6.49-6.52,6.53
		C11.64,16.19,8.73,13.29,8.72,9.58z M20.88,9.53c-0.02-3.12-2.54-5.62-5.66-5.59C12.1,3.97,9.57,6.52,9.6,9.6
		c0.03,3.09,2.62,5.64,5.69,5.61C18.4,15.19,20.9,12.65,20.88,9.53z"/>
	<path class="st0" d="M20.88,9.53c0.02,3.12-2.49,5.66-5.6,5.68c-3.07,0.03-5.66-2.52-5.69-5.61c-0.03-3.08,2.51-5.64,5.62-5.66
		C18.34,3.91,20.87,6.41,20.88,9.53z"/>
</g>
</svg>
