<?xml version="1.0" encoding="utf-8"?>
<!-- Generator: Adobe Illustrator 25.0.1, SVG Export Plug-In . SVG Version: 6.00 Build 0)  -->
<svg version="1.1" id="Layer_1" xmlns="http://www.w3.org/2000/svg" xmlns:xlink="http://www.w3.org/1999/xlink" x="0px" y="0px"
	 viewBox="0 0 25 25" style="enable-background:new 0 0 25 25;" xml:space="preserve">
<g>
	<path d="M12.5,24.4c-3.35,0-6.71,0-10.06,0c-0.3,0-0.6,0.02-0.89,0c-0.74-0.05-0.89-0.19-0.95-0.9c-0.02-0.21-0.01-0.42-0.01-0.64
		c0-5.43,0.01-10.87-0.01-16.3c0-0.78,0.2-1.35,0.75-1.92c1.1-1.17,2.15-2.39,3.13-3.66c0.38-0.49,0.78-0.56,1.31-0.56
		c2.84,0.01,5.69,0,8.53,0c1.74,0,3.48,0.01,5.22-0.01c0.6-0.01,0.98,0.17,1.37,0.69c0.99,1.31,2.09,2.55,3.19,3.78
		c0.37,0.41,0.53,0.82,0.53,1.37c-0.01,5.65,0,11.29-0.01,16.94c0,1.1-0.13,1.22-1.27,1.22C19.72,24.4,16.11,24.4,12.5,24.4z
		 M12.64,23.11c3.14,0,6.28,0,9.43,0c1.55,0,1.48,0.14,1.48-1.42c0-3.27,0-6.54,0-9.81c0-1.57,0.01-3.14-0.01-4.71
		c-0.01-0.82-0.03-0.85-0.75-0.86c-1.95-0.02-3.91,0-5.86-0.01c-0.54,0-0.76,0.19-0.75,0.74c0.02,1.15,0.02,2.29,0,3.44
		c-0.02,1.03-0.14,1.15-1.2,1.16c-1.61,0.02-3.23,0.02-4.84,0c-0.96-0.01-1.1-0.16-1.12-1.12C9,9.43,9.02,8.32,9.01,7.22
		c-0.01-0.88-0.03-0.9-0.95-0.91C6.27,6.3,4.49,6.3,2.7,6.31C1.67,6.32,1.66,6.33,1.66,7.38c-0.01,4.88-0.01,9.77,0,14.65
		c0,1.07,0.02,1.08,1.17,1.08C6.1,23.12,9.37,23.11,12.64,23.11z M2.32,5.24c2.23,0,4.21,0,6.18,0c0.45,0,0.68-0.22,0.76-0.67
		C9.4,3.78,9.58,3.01,9.73,2.23c0.11-0.58-0.02-0.74-0.67-0.75C8.09,1.45,7.12,1.44,6.15,1.48c-0.31,0.01-0.7,0.13-0.9,0.34
		C4.3,2.87,3.4,3.97,2.32,5.24z M22.8,5.24c-0.95-1.16-1.76-2.17-2.59-3.17c-0.3-0.37-0.65-0.63-1.18-0.62
		c-0.97,0.03-1.94-0.01-2.91,0.02c-0.65,0.02-0.8,0.22-0.67,0.88c0.14,0.78,0.34,1.56,0.51,2.34c0.09,0.41,0.36,0.54,0.74,0.55
		C18.66,5.25,20.63,5.24,22.8,5.24z M12.6,10.36c0.63,0,1.27,0,1.9,0c0.42,0,0.62-0.18,0.62-0.61c-0.01-0.97,0-1.94-0.01-2.91
		c0-0.37-0.19-0.53-0.55-0.53c-1.31,0-2.62,0-3.93,0c-0.36,0-0.55,0.17-0.55,0.53c0,0.97,0,1.94-0.01,2.91
		c0,0.43,0.21,0.61,0.62,0.6C11.33,10.36,11.96,10.36,12.6,10.36z M12.57,5.24C12.57,5.24,12.57,5.24,12.57,5.24
		c0.59,0,1.18,0,1.78,0c0.37,0,0.55-0.17,0.47-0.56c-0.16-0.82-0.32-1.65-0.5-2.47c-0.11-0.52-0.41-0.79-0.99-0.75
		c-0.51,0.04-1.01,0.02-1.52,0C11.37,1.45,11.1,1.59,11,2.06c-0.19,0.9-0.43,1.8-0.63,2.7c-0.07,0.32,0.12,0.47,0.42,0.48
		C11.38,5.25,11.98,5.24,12.57,5.24z"/>
	<path d="M18.94,17.25c0.72,0,1.44-0.02,2.16,0.01c0.74,0.03,0.92,0.19,0.94,0.9c0.03,0.93,0.03,1.86,0,2.79
		c-0.03,0.7-0.2,0.87-0.95,0.89c-1.44,0.03-2.88,0.03-4.31,0c-0.9-0.02-1.12-0.28-1.14-1.14c-0.02-0.76-0.02-1.52,0-2.28
		c0.02-0.86,0.24-1.09,1.14-1.14C17.5,17.22,18.22,17.25,18.94,17.25z M18.91,18.54C18.91,18.54,18.91,18.54,18.91,18.54
		c-0.55,0.01-1.1,0.01-1.64,0.01c-0.36,0-0.55,0.16-0.56,0.53c0,0.3,0,0.59-0.01,0.89c-0.01,0.43,0.2,0.6,0.62,0.6
		c1.01-0.01,2.02,0.01,3.04-0.01c0.19,0,0.53-0.12,0.54-0.21c0.06-0.5,0.13-1.03,0-1.49c-0.05-0.18-0.62-0.24-0.97-0.29
		C19.59,18.5,19.25,18.54,18.91,18.54z"/>
</g>
</svg>
