<?xml version="1.0" encoding="utf-8"?>
<!-- Generator: Adobe Illustrator 25.0.1, SVG Export Plug-In . SVG Version: 6.00 Build 0)  -->
<svg version="1.1" id="Layer_1" xmlns="http://www.w3.org/2000/svg" xmlns:xlink="http://www.w3.org/1999/xlink" x="0px" y="0px"
	 viewBox="0 0 25 25" style="enable-background:new 0 0 25 25;" xml:space="preserve">
<g>
	<path d="M11.7,24.44c-1.59,0.25-2.56-0.31-3.43-1.2c-2.03-2.06-4.07-4.1-6.13-6.13c-0.66-0.65-1.31-1.31-1.65-2.38
		c0-0.29,0-0.76,0-1.17c0.31-0.95,0.91-1.63,1.58-2.29c3.05-3.02,6.07-6.06,9.11-9.1c0.65-0.65,1.26-1.38,2.21-1.67
		c2.46,0,4.92-0.04,7.38,0.01c2.02,0.04,3.67,1.74,3.7,3.77c0.04,2.17,0.05,4.33,0,6.5c-0.02,0.88-0.34,1.69-0.99,2.35
		c-3.46,3.45-6.9,6.92-10.38,10.35C12.67,23.93,12.08,24.19,11.7,24.44z M23.45,7.78C23.45,7.78,23.44,7.78,23.45,7.78
		c-0.01-0.85,0.02-1.7-0.02-2.55c-0.03-0.66-0.07-1.34-0.26-1.97c-0.23-0.74-0.75-1.32-1.57-1.46c-0.69-0.12-1.4-0.22-2.1-0.24
		c-1.57-0.04-3.14,0.03-4.71-0.04c-1.01-0.04-1.75,0.31-2.45,1.02c-3.28,3.32-6.6,6.62-9.9,9.92c-0.15,0.15-0.32,0.29-0.44,0.46
		c-0.68,0.94-0.65,1.61,0.02,2.5c0.15,0.2,0.35,0.37,0.53,0.55c2.16,2.16,4.32,4.32,6.49,6.49c0.21,0.21,0.39,0.46,0.64,0.62
		c0.91,0.58,1.42,0.56,2.31,0c0.25-0.15,0.43-0.41,0.64-0.62c1.59-1.59,3.18-3.18,4.77-4.77c1.74-1.74,3.47-3.49,5.23-5.22
		c0.57-0.57,0.87-1.19,0.83-2.01C23.41,9.56,23.45,8.67,23.45,7.78z"/>
	<path d="M22.19,4.62c-0.02,0.86-0.92,1.76-1.78,1.77c-0.9,0.01-1.85-0.98-1.8-1.87c0.05-0.86,1.01-1.75,1.84-1.7
		C21.32,2.86,22.21,3.78,22.19,4.62z M21.26,4.63c-0.3-0.3-0.57-0.58-0.9-0.91c-0.32,0.37-0.55,0.65-0.8,0.95
		c0.31,0.29,0.55,0.51,0.84,0.78C20.69,5.17,20.93,4.94,21.26,4.63z"/>
</g>
</svg>
