<?xml version="1.0" encoding="utf-8"?>
<!-- Generator: Adobe Illustrator 25.0.1, SVG Export Plug-In . SVG Version: 6.00 Build 0)  -->
<svg version="1.1" id="Layer_1" xmlns="http://www.w3.org/2000/svg" xmlns:xlink="http://www.w3.org/1999/xlink" x="0px" y="0px"
	 viewBox="0 0 25 25" style="enable-background:new 0 0 25 25;" xml:space="preserve">
<g>
	<path d="M22.54,7.9c-0.26,0.97,0.19,1.83,0.93,2.67c1.39,1.58,1.4,2.31,0.02,3.84c-0.78,0.87-1.09,1.76-0.97,2.94
		c0.22,2.06-0.23,2.69-2.23,3.14c-1.18,0.27-1.98,0.83-2.58,1.9c-0.96,1.72-1.75,1.97-3.56,1.15c-1.16-0.53-2.17-0.5-3.32,0.01
		c-1.8,0.8-2.57,0.55-3.54-1.2c-0.6-1.08-1.41-1.63-2.59-1.89c-1.97-0.44-2.5-1.19-2.21-3.15c0.17-1.15-0.16-2-0.9-2.84
		c-1.44-1.62-1.45-2.35-0.03-3.94c0.82-0.91,1.12-1.84,0.92-3.06C2.2,5.74,2.77,4.94,4.53,4.57c1.32-0.28,2.2-0.91,2.87-2.09
		c0.88-1.56,1.66-1.82,3.28-1.08c1.27,0.58,2.39,0.57,3.66,0c1.64-0.74,2.44-0.46,3.35,1.18c0.59,1.07,1.36,1.67,2.55,1.94
		C22.31,4.98,22.67,5.55,22.54,7.9z M21.62,8.07c0.08-2.15,0.03-2.38-1.43-2.65c-1.6-0.29-2.7-1.09-3.4-2.53
		c-0.47-0.96-1.23-1.24-2.18-0.71c-1.46,0.82-2.88,0.8-4.33,0C9.3,1.65,8.55,1.97,8.09,2.92c-0.7,1.45-1.81,2.29-3.42,2.5
		C3.61,5.56,3.11,6.16,3.29,7.24c0.26,1.62-0.16,2.99-1.38,4.13c-0.79,0.74-0.74,1.59,0.04,2.31c1.19,1.11,1.6,2.44,1.34,4.02
		c-0.18,1.13,0.32,1.77,1.43,1.91c1.57,0.2,2.66,1.01,3.34,2.41c0.52,1.06,1.32,1.35,2.36,0.75c1.38-0.79,2.74-0.73,4.11,0.02
		c1.07,0.59,1.84,0.24,2.35-0.81c0.64-1.31,1.63-2.07,3.12-2.35c1.58-0.29,1.74-0.55,1.61-2.24c-0.11-1.37,0.17-2.49,1.15-3.51
		c1.15-1.21,1.12-1.56-0.03-2.84C21.91,10.15,21.36,9.19,21.62,8.07z"/>
	<path d="M20.53,12.48c0.04,4.38-3.57,8.03-8,8.09c-4.4,0.05-8.03-3.51-8.12-7.97c-0.09-4.43,3.59-8.16,8.05-8.15
		C16.87,4.45,20.49,8.05,20.53,12.48z M19.67,12.44c-0.04-3.92-3.39-7.2-7.28-7.13c-3.9,0.07-7.1,3.31-7.11,7.19
		c-0.01,3.91,3.32,7.23,7.21,7.2C16.41,19.67,19.71,16.33,19.67,12.44z"/>
	<path d="M9.74,10.83c0.5-0.02,0.85,0.28,1.1,0.63c0.72,1.02,1.33,0.83,2.01-0.05c0.39-0.5,0.89-0.92,1.34-1.38
		c0.63-0.63,1.34-0.81,2-0.13c0.62,0.63,0.45,1.32-0.14,1.91c-1.07,1.08-2.14,2.17-3.23,3.23c-0.61,0.59-1.3,0.63-1.93,0.05
		c-0.74-0.68-1.44-1.39-2.13-2.13c-0.38-0.41-0.5-0.91-0.2-1.44C8.82,11.08,9.19,10.81,9.74,10.83z M15.67,10.82
		c-0.09-0.14-0.14-0.31-0.25-0.39c-0.2-0.13-0.38,0.02-0.52,0.16c-0.66,0.64-1.31,1.29-1.96,1.94c-1.12,1.12-1.12,1.11-2.21,0.04
		c-0.25-0.25-0.51-0.51-0.79-0.73c-0.1-0.08-0.32-0.08-0.45-0.04c-0.16,0.06-0.18,0.24-0.14,0.41c0.05,0.21,2.13,2.32,2.35,2.37
		c0.23,0.05,0.39-0.07,0.52-0.21c1.05-1.04,2.1-2.09,3.14-3.14C15.47,11.12,15.55,10.98,15.67,10.82z"/>
</g>
</svg>
