<?xml version="1.0" encoding="utf-8"?>
<!-- Generator: Adobe Illustrator 25.0.1, SVG Export Plug-In . SVG Version: 6.00 Build 0)  -->
<svg version="1.1" id="Layer_1" xmlns="http://www.w3.org/2000/svg" xmlns:xlink="http://www.w3.org/1999/xlink" x="0px" y="0px"
	 viewBox="0 0 318.9 94.96" style="enable-background:new 0 0 318.9 94.96;" xml:space="preserve">
<style type="text/css">
	.st0{fill:url(#SVGID_1_);}
	.st1{fill:url(#SVGID_2_);}
	.st2{fill:url(#SVGID_3_);}
	.st3{fill:url(#SVGID_4_);}
	.st4{fill:url(#SVGID_5_);}
	.st5{fill:url(#SVGID_6_);}
	.st6{fill:#FFFFFF;}
	.st7{fill:url(#SVGID_7_);}
	.st8{fill:url(#SVGID_8_);}
	.st9{fill:url(#SVGID_9_);}
	.st10{fill:url(#SVGID_10_);}
	.st11{fill:url(#SVGID_11_);}
	.st12{fill:url(#SVGID_12_);}
	.st13{fill:url(#SVGID_13_);}
	.st14{fill:url(#SVGID_14_);}
	.st15{fill:url(#SVGID_15_);}
	.st16{fill:url(#SVGID_16_);}
	.st17{fill:url(#SVGID_17_);}
	.st18{fill:url(#SVGID_18_);}
	.st19{fill:url(#SVGID_19_);}
	.st20{fill:url(#SVGID_20_);}
	.st21{fill:url(#SVGID_21_);}
	.st22{fill:url(#SVGID_22_);}
	.st23{fill:url(#SVGID_23_);}
	.st24{fill:url(#SVGID_24_);}
	.st25{fill:url(#SVGID_25_);}
	.st26{fill:url(#SVGID_26_);}
	.st27{fill:url(#SVGID_27_);}
	.st28{fill:url(#SVGID_28_);}
	.st29{fill:url(#SVGID_29_);}
	.st30{fill:url(#SVGID_30_);}
	.st31{fill:url(#SVGID_31_);}
	.st32{fill:url(#SVGID_32_);}
	.st33{fill:url(#SVGID_33_);}
	.st34{fill:url(#SVGID_34_);}
	.st35{fill:url(#SVGID_35_);}
	.st36{fill:url(#SVGID_36_);}
	.st37{fill:url(#SVGID_37_);}
	.st38{fill:url(#SVGID_38_);}
	.st39{fill:url(#SVGID_39_);}
	.st40{fill:url(#SVGID_40_);}
	.st41{fill:url(#SVGID_41_);}
	.st42{fill:url(#SVGID_42_);}
	.st43{fill:url(#SVGID_43_);}
	.st44{fill:url(#SVGID_44_);}
	.st45{fill:url(#SVGID_45_);}
	.st46{fill:url(#SVGID_46_);}
	.st47{fill:url(#SVGID_47_);}
	.st48{fill:url(#SVGID_48_);}
	.st49{fill:url(#SVGID_49_);}
	.st50{fill:url(#SVGID_50_);}
</style>
<path class="st6" d="M172.96,0.83c-25.76,0-46.65,20.89-46.65,46.65c0,25.76,20.89,46.65,46.65,46.65s46.65-20.89,46.65-46.65
	C219.61,21.72,198.73,0.83,172.96,0.83z M195.14,61.14l1.92,9.99c0.26,1.35-1,2.5-2.32,2.11l-9.58-2.79
	c-3.64,1.94-7.79,3.06-12.2,3.06c-14.38,0-26.03-11.65-26.03-26.03s11.65-26.03,26.03-26.03c14.38,0,26.03,11.65,26.03,26.03
	c0,5-1.42,9.65-3.86,13.62C195.13,61.11,195.14,61.13,195.14,61.14z"/>
<path class="st6" d="M161.98,43.18c-2.31,0.02-4.25,1.96-4.27,4.26c-0.02,2.36,1.99,4.37,4.35,4.35c2.35-0.02,4.23-1.9,4.25-4.26
	C166.35,45.15,164.36,43.16,161.98,43.18z"/>
<path class="st6" d="M173.04,43.19c-2.39-0.03-4.38,1.94-4.37,4.32c0.01,2.38,1.84,4.23,4.21,4.28c2.29,0.05,4.35-1.89,4.39-4.14
	C177.31,45.21,175.42,43.22,173.04,43.19z"/>
<path class="st6" d="M183.8,43.17c-2.27,0.01-4.18,1.98-4.19,4.31c0,2.45,1.76,4.27,4.16,4.29c2.41,0.02,4.44-1.95,4.43-4.28
	C188.2,45.13,186.18,43.16,183.8,43.17z"/>
<path class="st6" d="M78.79,30.85H59.1C58.71,12.07,70.06,1.11,88.31,1.11c24.65,0,36.65,24.52,21.65,46.56
	c0,0.26-0.26,1.04-17.74,25.04h28.95v21.13H58.06v-5.09l31.69-46.04c6.26-9.39,8.35-20.21-2.22-20.61
	C83.23,21.98,78.79,24.72,78.79,30.85z"/>
<path class="st6" d="M231.38,93.87V0.83h25.1v42.26l29.42-42.26h29.55L281.08,46.2l37.37,47.66H286.8l-30.31-41.75v41.75H231.38z"/>
<path class="st6" d="M48.07,74.31v19.53H0.45V74.31h11.74v-53.3H1.5V1.49h45.51v19.52H36.33v53.3H48.07z"/>
</svg>
